<svg width="60" height="60" fill="none" xmlns="http://www.w3.org/2000/svg"><circle cx="30" cy="30" r="30" fill="#AAD4C8"/><path d="M36.587 41H22.613v-1.948l7.383-8.203c1.093-1.24 1.845-2.247 2.255-3.018.42-.781.63-1.587.63-2.417 0-1.113-.337-2.026-1.01-2.74-.674-.712-1.573-1.069-2.696-1.069-1.347 0-2.397.386-3.15 1.158-.741.761-1.112 1.826-1.112 3.193h-2.71c0-1.963.63-3.55 1.89-4.76 1.269-1.212 2.963-1.817 5.082-1.817 1.983 0 3.55.522 4.702 1.567 1.153 1.035 1.729 2.417 1.729 4.146 0 2.1-1.338 4.6-4.014 7.5l-5.713 6.196h10.708V41Z" fill="#fff"/></svg>