<svg width="60" height="60" fill="none" xmlns="http://www.w3.org/2000/svg"><circle cx="30" cy="30" r="30" fill="#AAD4C8"/><path d="M26.553 29.018h2.036c1.28-.02 2.286-.357 3.018-1.011.732-.655 1.099-1.538 1.099-2.652 0-2.5-1.246-3.75-3.736-3.75-1.172 0-2.11.337-2.812 1.011-.694.664-1.04 1.548-1.04 2.652h-2.71c0-1.69.615-3.091 1.845-4.204 1.24-1.124 2.813-1.685 4.717-1.685 2.012 0 3.59.532 4.732 1.597 1.142 1.064 1.714 2.544 1.714 4.438 0 .928-.303 1.826-.909 2.695-.595.87-1.41 1.519-2.446 1.949 1.172.37 2.075.986 2.71 1.845.645.86.967 1.91.967 3.15 0 1.914-.625 3.432-1.875 4.555-1.25 1.123-2.876 1.685-4.878 1.685-2.002 0-3.633-.542-4.893-1.626-1.25-1.084-1.875-2.515-1.875-4.292h2.725c0 1.123.366 2.022 1.099 2.695.732.674 1.713 1.011 2.944 1.011 1.308 0 2.31-.342 3.003-1.025.693-.684 1.04-1.665 1.04-2.945 0-1.24-.381-2.192-1.143-2.856-.762-.664-1.86-1.006-3.296-1.026h-2.036v-2.211Z" fill="#fff"/></svg>