<svg width="67" height="86" fill="none" xmlns="http://www.w3.org/2000/svg"><path d="M24.143 6.207A2.605 2.605 0 0 0 22.3 9.383l.858 3.203 5.03-1.348-.859-3.203a2.605 2.605 0 0 0-3.185-1.828Zm1.053 3.928a1.452 1.452 0 0 1-1.784-1.024 1.452 1.452 0 0 1 1.033-1.778 1.452 1.452 0 0 1 1.784 1.024 1.452 1.452 0 0 1-1.033 1.778Z" fill="#E8505B"/><path opacity=".45" d="M26.229 8.357a1.452 1.452 0 0 0-1.784-1.024c-.076.02-.151.04-.195.079.181-.13.168-.18.52-.274a1.452 1.452 0 0 1 1.784 1.024c.188.7-.064 1.17-.577 1.469.228-.356.366-.849.252-1.274Zm-2.405 3.701-.858-3.203c-.235-.876-.059-1.727.5-2.36a2.597 2.597 0 0 0-1.167 2.888l.858 3.203 5.03-1.348-.088-.325-4.275 1.145Z" fill="#B03D44"/><path d="M64.277 73.098 21.851 84.466a2.522 2.522 0 0 1-3.09-1.773L2.226 20.983a2.522 2.522 0 0 1 1.79-3.08L46.44 6.534a2.522 2.522 0 0 1 3.09 1.774l16.535 61.71c.38 1.319-.43 2.716-1.789 3.08Z" fill="#3E89CC"/><path d="M46.862 9.211 5.014 20.424l16.441 61.359L63.303 70.57 46.863 9.21Z" fill="#C3ECFE"/><path d="M45.755 11.52 7.127 21.87l15.435 57.605 38.629-10.35-15.436-57.606Z" fill="#fff"/><path d="m40.751 9.24.67 2.502-30.43 8.153-.67-2.502a1.963 1.963 0 0 1-.066-.546 1.82 1.82 0 0 1 1.357-1.677l26.91-7.21c.973-.288 1.968.303 2.23 1.28Z" fill="#E8505B"/><path opacity=".45" d="m41.254 11.116.168.626-30.43 8.153-.484-1.801a8.96 8.96 0 0 1-.253-1.247 1.82 1.82 0 0 1 1.357-1.677l.226-.061c-.332.572-.503 1.342-.315 2.042l.483 1.802 29.248-7.837Z" fill="#B03D44"/><g opacity=".15" stroke="#0964AF" stroke-width="3.122" stroke-miterlimit="10" stroke-linecap="round" stroke-linejoin="round"><path opacity=".15" d="m19.476 25.105 6.262-1.678M40.358 21.655l4.779-1.28M20.013 27.107l18.283-4.9M20.55 29.109l25.123-6.732M38.205 26.497l7.998-2.143M21.079 31.086l15.14-4.057M27.8 22.875l16.8-4.502"/></g><g opacity=".15" stroke="#0964AF" stroke-width="3.122" stroke-miterlimit="10" stroke-linecap="round" stroke-linejoin="round"><path opacity=".15" d="m23.312 39.419 6.262-1.678M44.194 35.969l4.778-1.28M23.848 41.42l18.283-4.898M24.378 43.398l25.124-6.733M42.04 40.81l7.998-2.143M24.914 45.4l15.14-4.057M31.636 37.188l16.8-4.501"/></g><g opacity=".15" stroke="#0964AF" stroke-width="3.122" stroke-miterlimit="10" stroke-linecap="round" stroke-linejoin="round"><path opacity=".15" d="m27.013 53.232 6.262-1.678M47.888 49.757l4.779-1.28M27.543 55.209l18.283-4.9M28.08 57.21l25.123-6.731M45.735 54.599l7.998-2.143M28.609 59.188l15.14-4.057M35.337 51.002l16.8-4.502"/></g><g opacity=".15" stroke="#0964AF" stroke-width="3.122" stroke-miterlimit="10" stroke-linecap="round" stroke-linejoin="round"><path opacity=".15" d="m30.781 67.295 6.262-1.677M51.657 63.82l4.778-1.28M31.31 69.272l18.284-4.899M31.847 71.274l25.124-6.732M49.504 68.662 57.5 66.52M32.377 73.251l15.14-4.057M39.106 65.065l16.8-4.502"/></g><path d="m18.21 30.942-4.703 1.26a.533.533 0 0 1-.669-.383l-1.247-4.655a.533.533 0 0 1 .388-.667l4.702-1.26a.533.533 0 0 1 .67.384l1.253 4.68c.074.275-.117.567-.394.642ZM22.032 45.206l-4.703 1.26a.533.533 0 0 1-.669-.384l-1.254-4.68a.533.533 0 0 1 .388-.666l4.703-1.26a.532.532 0 0 1 .669.384l1.253 4.679c.08.3-.11.593-.387.667ZM25.854 59.47l-4.703 1.26a.533.533 0 0 1-.669-.384l-1.253-4.68a.532.532 0 0 1 .387-.667l4.703-1.26a.533.533 0 0 1 .669.384l1.253 4.68a.566.566 0 0 1-.387.667ZM29.676 73.734l-4.703 1.26a.533.533 0 0 1-.669-.384l-1.254-4.68a.532.532 0 0 1 .388-.667l4.703-1.26a.533.533 0 0 1 .669.384l1.253 4.68a.566.566 0 0 1-.387.667Z" stroke="#2396B5" stroke-width="1.157" stroke-miterlimit="10"/><path d="m12.65 28.302 2.861 2.023 2.418-7.675M16.44 42.44l2.86 2.023 2.417-7.675" stroke="#FFA829" stroke-width="3.47" stroke-miterlimit="10" stroke-linecap="round" stroke-linejoin="round"/></svg>