<!-- Generated by IcoMoon.io -->
<svg version="1.1" xmlns="http://www.w3.org/2000/svg" width="32" height="32" viewBox="0 0 32 32">
<title>2</title>
<path fill="#aad4c8" d="M32 16c0 8.837-7.163 16-16 16s-16-7.163-16-16c0-8.837 7.163-16 16-16s16 7.163 16 16z"></path>
<path fill="#fff" d="M19.513 21.867h-7.453v-1.039l3.938-4.375c0.583-0.661 0.984-1.198 1.203-1.61 0.224-0.417 0.336-0.846 0.336-1.289 0-0.594-0.18-1.081-0.539-1.461-0.359-0.38-0.839-0.57-1.438-0.57-0.718 0-1.278 0.206-1.68 0.618-0.395 0.406-0.593 0.974-0.593 1.703h-1.445c0-1.047 0.336-1.893 1.008-2.539 0.677-0.646 1.58-0.969 2.71-0.969 1.058 0 1.893 0.278 2.508 0.836 0.615 0.552 0.922 1.289 0.922 2.211 0 1.12-0.714 2.453-2.141 4l-3.047 3.305h5.711v1.18z"></path>
</svg>
