<!-- Generated by IcoMoon.io -->
<svg version="1.1" xmlns="http://www.w3.org/2000/svg" width="32" height="32" viewBox="0 0 32 32">
<title>3</title>
<path fill="#aad4c8" d="M32 16c0 8.837-7.163 16-16 16s-16-7.163-16-16c0-8.837 7.163-16 16-16s16 7.163 16 16z"></path>
<path fill="#fff" d="M14.162 15.476h1.086c0.683-0.011 1.219-0.19 1.61-0.539s0.586-0.82 0.586-1.414c0-1.333-0.665-2-1.993-2-0.625 0-1.125 0.18-1.5 0.539-0.37 0.354-0.555 0.826-0.555 1.414h-1.445c0-0.901 0.328-1.649 0.984-2.242 0.661-0.599 1.5-0.899 2.516-0.899 1.073 0 1.915 0.284 2.524 0.852s0.914 1.357 0.914 2.367c0 0.495-0.162 0.974-0.485 1.437-0.317 0.464-0.752 0.81-1.305 1.039 0.625 0.197 1.107 0.526 1.445 0.984 0.344 0.459 0.516 1.019 0.516 1.68 0 1.021-0.333 1.83-1 2.429s-1.534 0.899-2.602 0.899c-1.068 0-1.938-0.289-2.61-0.867-0.667-0.578-1-1.341-1-2.289h1.453c0 0.599 0.195 1.078 0.586 1.437s0.914 0.539 1.57 0.539c0.698 0 1.232-0.182 1.602-0.547s0.555-0.888 0.555-1.571c0-0.661-0.203-1.169-0.61-1.523s-0.992-0.537-1.758-0.547h-1.086v-1.179z"></path>
</svg>
