<!-- Generated by IcoMoon.io -->
<svg version="1.1" xmlns="http://www.w3.org/2000/svg" width="25" height="32" viewBox="0 0 25 32">
<title>Anketa</title>
<path fill="#e8505b" d="M8.983 2.31c-0.417 0.115-0.717 0.49-0.717 0.936 0 0.087 0.012 0.172 0.033 0.253l-0.002-0.007 0.319 1.192 1.872-0.502-0.32-1.192c-0.116-0.414-0.491-0.713-0.935-0.713-0.089 0-0.175 0.012-0.257 0.034l0.007-0.002zM9.375 3.771c-0.043 0.012-0.091 0.019-0.142 0.019-0.248 0-0.458-0.168-0.521-0.396l-0.001-0.004c-0.012-0.042-0.018-0.090-0.018-0.139 0-0.249 0.169-0.459 0.399-0.522l0.004-0.001c0.043-0.012 0.091-0.019 0.142-0.019 0.248 0 0.458 0.168 0.521 0.396l0.001 0.004c0.012 0.042 0.018 0.090 0.018 0.139 0 0.249-0.169 0.459-0.399 0.522l-0.004 0.001z"></path>
<path fill="#b03d44" opacity="0.45" d="M9.76 3.11c-0.064-0.232-0.273-0.4-0.522-0.4-0.051 0-0.099 0.007-0.146 0.020l0.004-0.001c-0.028 0.007-0.056 0.015-0.073 0.029 0.067-0.048 0.063-0.067 0.194-0.102 0.043-0.012 0.091-0.019 0.142-0.019 0.248 0 0.458 0.168 0.521 0.396l0.001 0.004c0.070 0.26-0.024 0.435-0.215 0.547 0.085-0.132 0.136-0.316 0.094-0.474zM8.865 4.487l-0.319-1.192c-0.087-0.326-0.022-0.643 0.186-0.878-0.281 0.172-0.466 0.478-0.466 0.827 0 0.088 0.012 0.173 0.034 0.254l-0.002-0.007 0.319 1.192 1.872-0.502-0.033-0.121-1.591 0.426z"></path>
<path fill="#3e89cc" d="M23.917 27.199l-15.786 4.23c-0.073 0.021-0.157 0.032-0.244 0.032-0.431 0-0.794-0.29-0.904-0.685l-0.002-0.007-6.153-22.962c-0.020-0.072-0.031-0.154-0.031-0.239 0-0.432 0.292-0.797 0.69-0.905l0.007-0.002 15.786-4.23c0.073-0.021 0.157-0.032 0.244-0.032 0.431 0 0.794 0.29 0.904 0.686l0.002 0.007 6.153 22.962c0.141 0.491-0.16 1.011-0.666 1.146z"></path>
<path fill="#c3ecfe" d="M17.437 3.427l-15.571 4.172 6.118 22.831 15.571-4.172-6.117-22.832z"></path>
<path fill="#fff" d="M17.025 4.287l-14.373 3.851 5.743 21.434 14.374-3.851-5.744-21.435z"></path>
<path fill="#e8505b" d="M15.163 3.438l0.249 0.931-11.323 3.034-0.249-0.931c-0.016-0.056-0.025-0.121-0.025-0.188 0-0.005 0-0.010 0-0.016v0.001c0.014-0.3 0.222-0.548 0.5-0.623l0.005-0.001 10.013-2.683c0.362-0.107 0.732 0.113 0.83 0.476z"></path>
<path fill="#b03d44" opacity="0.45" d="M15.35 4.136l0.063 0.233-11.323 3.034-0.18-0.67c-0.038-0.129-0.071-0.286-0.092-0.447l-0.002-0.017c0.014-0.3 0.222-0.548 0.5-0.623l0.005-0.001 0.084-0.023c-0.124 0.213-0.187 0.499-0.117 0.76l0.18 0.67 10.883-2.916z"></path>
<path fill="none" opacity="0.0225" stroke="#0964af" stroke-linejoin="round" stroke-linecap="round" stroke-miterlimit="10" stroke-width="1.1617" d="M7.247 9.341l2.33-0.624M15.017 8.058l1.778-0.476M7.447 10.086l6.803-1.823M7.646 10.831l9.348-2.505M14.216 9.859l2.976-0.797M7.843 11.567l5.634-1.51M10.344 8.512l6.251-1.675"></path>
<path fill="none" opacity="0.0225" stroke="#0964af" stroke-linejoin="round" stroke-linecap="round" stroke-miterlimit="10" stroke-width="1.1617" d="M8.674 14.668l2.33-0.624M16.444 13.384l1.778-0.476M8.874 15.412l6.803-1.822M9.071 16.148l9.348-2.505M15.643 15.185l2.976-0.797M9.27 16.893l5.633-1.51M11.772 13.837l6.251-1.675"></path>
<path fill="none" opacity="0.0225" stroke="#0964af" stroke-linejoin="round" stroke-linecap="round" stroke-miterlimit="10" stroke-width="1.1617" d="M10.051 19.807l2.33-0.624M17.819 18.514l1.778-0.476M10.249 20.543l6.803-1.823M10.448 21.287l9.348-2.505M17.018 20.316l2.976-0.797M10.645 22.023l5.633-1.51M13.149 18.977l6.251-1.675"></path>
<path fill="none" opacity="0.0225" stroke="#0964af" stroke-linejoin="round" stroke-linecap="round" stroke-miterlimit="10" stroke-width="1.1617" d="M11.453 25.040l2.33-0.624M19.221 23.747l1.778-0.476M11.65 25.776l6.803-1.823M11.85 26.521l9.348-2.505M18.42 25.549l2.975-0.797M12.047 27.256l5.633-1.51M14.551 24.21l6.251-1.675"></path>
<path fill="none" stroke="#2396b5" stroke-linejoin="miter" stroke-linecap="butt" stroke-miterlimit="10" stroke-width="0.4305" d="M6.776 11.513l-1.75 0.469c-0.017 0.005-0.036 0.008-0.056 0.008-0.093 0-0.17-0.063-0.192-0.149l-0-0.001-0.464-1.732c-0.005-0.017-0.008-0.036-0.008-0.055 0-0.093 0.064-0.171 0.151-0.193l0.001-0 1.75-0.469c0.017-0.005 0.036-0.008 0.057-0.008 0.093 0 0.171 0.064 0.192 0.15l0 0.001 0.466 1.741c0.028 0.102-0.044 0.211-0.147 0.239zM8.198 16.821l-1.75 0.469c-0.017 0.005-0.036 0.008-0.056 0.008-0.093 0-0.171-0.064-0.192-0.15l-0-0.001-0.467-1.741c-0.005-0.016-0.008-0.035-0.008-0.055 0-0.093 0.064-0.171 0.151-0.193l0.001-0 1.75-0.469c0.017-0.005 0.036-0.008 0.057-0.008 0.093 0 0.171 0.064 0.192 0.15l0 0.001 0.466 1.741c0.030 0.112-0.041 0.221-0.144 0.248zM9.62 22.128l-1.75 0.469c-0.017 0.005-0.036 0.008-0.056 0.008-0.093 0-0.171-0.064-0.192-0.15l-0-0.001-0.466-1.741c-0.005-0.017-0.008-0.036-0.008-0.056 0-0.093 0.064-0.171 0.151-0.192l0.001-0 1.75-0.469c0.017-0.005 0.036-0.008 0.056-0.008 0.093 0 0.171 0.064 0.192 0.15l0 0.001 0.466 1.741c0.003 0.014 0.005 0.030 0.005 0.047 0 0.094-0.062 0.174-0.148 0.201l-0.002 0zM11.042 27.436l-1.75 0.469c-0.017 0.005-0.036 0.008-0.056 0.008-0.093 0-0.171-0.064-0.192-0.15l-0-0.001-0.467-1.741c-0.005-0.017-0.008-0.036-0.008-0.056 0-0.093 0.064-0.171 0.151-0.192l0.001-0 1.75-0.469c0.017-0.005 0.036-0.008 0.056-0.008 0.093 0 0.171 0.064 0.192 0.15l0 0.001 0.466 1.741c0.003 0.014 0.005 0.030 0.005 0.047 0 0.094-0.062 0.174-0.148 0.201l-0.002 0z"></path>
<path fill="none" stroke="#ffa829" stroke-linejoin="round" stroke-linecap="round" stroke-miterlimit="10" stroke-width="1.2912" d="M4.707 10.531l1.065 0.753 0.9-2.856M6.117 15.792l1.064 0.753 0.899-2.856"></path>
</svg>
