<!-- Generated by IcoMoon.io -->
<svg version="1.1" xmlns="http://www.w3.org/2000/svg" width="36" height="32" viewBox="0 0 36 32">
<title>group2</title>
<path fill="#616e7d" d="M0.651 31.109c0.401 0.403 0.956 0.653 1.569 0.656h31.3c0.614-0.003 1.168-0.253 1.569-0.657l0-0c0.401-0.405 0.649-0.961 0.651-1.575v-18.477h-35.74v18.471c0.002 0.617 0.25 1.175 0.651 1.582l-0-0zM28.54 12.555h5.116v4.588h-5.116v-4.588zM28.54 18.412h5.116v4.583h-5.116v-4.583zM21.922 12.555h5.116v4.588h-5.116v-4.588zM21.922 18.412h5.116v4.583h-5.116v-4.583zM21.922 24.263h5.116v4.583h-5.116v-4.583zM15.31 12.555h5.116v4.588h-5.116v-4.588zM15.31 18.412h5.116v4.583h-5.116v-4.583zM15.31 24.263h5.116v4.583h-5.116v-4.583zM8.692 12.555h5.116v4.588h-5.116v-4.588zM8.692 18.412h5.116v4.583h-5.116v-4.583zM8.692 24.263h5.116v4.583h-5.116v-4.583zM2.080 18.412h5.116v4.583h-5.115v-4.583zM2.080 24.263h5.116v4.583h-5.115v-4.583z"></path>
<path fill="#aad4c8" d="M35.731 8.927h-35.731v1.322h35.731v-1.322zM3.673 2.571h-1.457c-0.613 0.003-1.168 0.253-1.569 0.656l-0 0c-0.398 0.407-0.644 0.963-0.647 1.576v2.596h35.731v-2.595c-0.002-0.615-0.25-1.172-0.651-1.577l0 0c-0.4-0.403-0.952-0.653-1.564-0.656h-3.762v2.923c0 0.001 0 0.002 0 0.003 0 0.543-0.439 0.983-0.981 0.986h-2.065c-0.542-0.003-0.981-0.443-0.981-0.986 0-0.001 0-0.002 0-0.004v0-2.923h-15.723v2.923c0 0.001 0 0.002 0 0.003 0 0.543-0.439 0.983-0.981 0.986h-2.065c-0.542-0-0.982-0.44-0.982-0.982 0-0.002 0-0.005 0-0.007v0-2.923h-2.303z"></path>
<path fill="#82bfab" d="M35.731 7.399h-35.731v1.528h35.731v-1.528z"></path>
<path fill="#616e7d" d="M6.958 5.494h2.065v-5.494h-2.065v5.494zM26.708 5.494h2.070v-5.494h-2.070v5.494z"></path>
<path fill="#82bfab" d="M13.808 12.555h-5.116v4.588h5.116v-4.588zM20.426 12.555h-5.116v4.588h5.116v-4.588zM27.038 12.555h-5.116v4.588h5.116v-4.588zM33.656 12.555h-5.116v4.588h5.116v-4.588zM7.196 18.412h-5.116v4.583h5.116v-4.583zM13.808 18.412h-5.116v4.583h5.116v-4.583zM20.426 18.412h-5.116v4.583h5.116v-4.583z"></path>
<path fill="#aad4c8" d="M27.038 18.412h-5.116v4.583h5.116v-4.583z"></path>
<path fill="#82bfab" d="M33.656 18.412h-5.116v4.583h5.116v-4.583zM7.196 24.263h-5.116v4.583h5.116v-4.583z"></path>
<path fill="#aad4c8" d="M13.808 24.263h-5.116v4.583h5.116v-4.583z"></path>
<path fill="#82bfab" d="M20.426 24.263h-5.116v4.583h5.116v-4.583zM27.038 24.263h-5.116v4.583h5.116v-4.583z"></path>
</svg>
