<!-- Generated by IcoMoon.io -->
<svg version="1.1" xmlns="http://www.w3.org/2000/svg" width="21" height="32" viewBox="0 0 21 32">
<title>group4</title>
<path fill="#aad4c8" d="M19.953 8.588s-0.179-6.292-0.186-6.367c-0.014-0.126-0.046-0.242-0.093-0.349l0.003 0.008c-0.125-0.28-0.352-0.497-0.633-0.605l-0.008-0.003-1.887-0.732c-0.124-0.049-0.268-0.077-0.419-0.077-0.17 0-0.331 0.036-0.477 0.101l0.008-0.003c-0.282 0.123-0.5 0.348-0.61 0.628l-0.003 0.008-1.288 3.3c-0.136-0.036-0.338-0.079-0.543-0.115l-0.056-0.008v-1.243c0-1.722-1.412-3.129-3.154-3.129s-3.154 1.4-3.154 3.129v1.244c-0.2 0.034-0.399 0.075-0.599 0.123l-1.288-3.3c-0.113-0.287-0.331-0.512-0.606-0.632l-0.007-0.003c-0.138-0.062-0.3-0.098-0.469-0.098-0.151 0-0.295 0.028-0.427 0.080l0.008-0.003-1.887 0.724c-0.288 0.111-0.515 0.327-0.637 0.601l-0.003 0.007c-0.043 0.095-0.075 0.206-0.089 0.322l-0.001 0.006c-0.006 0.082-0.186 6.388-0.186 6.388-0.792 1.291-1.261 2.854-1.261 4.526 0 0.004 0 0.007 0 0.011v-0.001 16.943c0 1.073 0.875 1.94 1.956 1.94h17.302c1.081 0 1.956-0.868 1.956-1.94v-16.943c0-1.66-0.461-3.211-1.26-4.536zM18.879 7.146c-0.205-0.225-0.416-0.432-0.638-0.627l-0.009-0.008 0.585-1.496 0.062 2.131zM16.613 1.565c0.021-0.049 0.068-0.082 0.123-0.082 0.015 0 0.030 0.003 0.043 0.007l-0.001-0 1.88 0.724c0.032 0.011 0.057 0.036 0.068 0.068l0 0.001c0.007 0.021 0.021 0.055 0 0.096l-1.357 3.464c-0.584-0.409-1.252-0.764-1.963-1.032l-0.062-0.021 1.267-3.225zM10.607 1.025c1.053 0 1.935 0.765 2.094 1.769-0.554-0.492-1.288-0.792-2.092-0.792-0.001 0-0.001 0-0.002 0h0c-0.002 0-0.003 0-0.005 0-0.802 0-1.534 0.298-2.092 0.789l0.004-0.003c0.165-0.997 1.040-1.763 2.094-1.763zM12.535 4.256h-3.857c0.112-0.237 0.255-0.441 0.427-0.615l-0 0c0.384-0.38 0.912-0.615 1.495-0.615 0.002 0 0.005 0 0.007 0h-0c0 0 0.001 0 0.002 0 0.849 0 1.581 0.498 1.922 1.217l0.005 0.013zM2.479 2.282c0.012-0.032 0.037-0.057 0.068-0.068l0.001-0 1.88-0.724c0.068-0.027 0.137 0.007 0.165 0.075l1.26 3.224c-0.771 0.29-1.436 0.644-2.047 1.072l0.029-0.020-1.357-3.458c-0.005-0.015-0.008-0.033-0.008-0.051s0.003-0.036 0.008-0.052l-0 0.001zM2.397 5.008l0.585 1.496c-0.227 0.205-0.448 0.417-0.647 0.635l0.062-2.131zM20.18 30.060c-0.002 0.506-0.413 0.915-0.919 0.915-0.001 0-0.002 0-0.003 0h-17.301c-0.001 0-0.002 0-0.004 0-0.506 0-0.917-0.409-0.919-0.915v-16.943c0-4.325 3.547-7.843 7.914-7.843h3.327c4.36 0 7.907 3.518 7.907 7.843v16.943z"></path>
<path fill="#aad4c8" d="M3.595 17.332c-0.834 0-1.515 0.676-1.515 1.503v9.654c0 0.827 0.675 1.503 1.515 1.503h14.016c0.833 0 1.515-0.676 1.515-1.503v-9.654c0-0.827-0.682-1.503-1.515-1.503h-14.016zM17.618 28.967h-14.022c-0 0-0 0-0.001 0-0.265 0-0.48-0.214-0.482-0.478v-6.443h13.004v1.168h1.033v-1.169h0.937v6.443c0.007 0.266-0.207 0.478-0.468 0.478zM18.093 18.835v2.193h-14.973v-2.193c0-0.26 0.213-0.478 0.482-0.478h14.016c0.261 0 0.475 0.212 0.475 0.478zM13.885 7.378h-6.557v2.924h6.557v-2.924zM12.852 9.284h-4.491v-0.881h4.491v0.881z"></path>
</svg>
