<!-- Generated by IcoMoon.io -->
<svg version="1.1" xmlns="http://www.w3.org/2000/svg" width="34" height="32" viewBox="0 0 34 32">
<title>group3</title>
<path fill="#aad4c8" d="M15.598 16.193c-0.418 0.072-1.028 0.446-1.912 1.024-0.478 0.301-1.195 0.771-1.338 0.807-0.443-0.108-3.957-1.036-3.957-1.036-0.108-0.036-0.215-0.012-0.311 0.048-0.091 0.057-0.154 0.153-0.167 0.263l-0 0.002-0.944 6.108c-0.024 0.193 0.095 0.385 0.287 0.434l3.096 0.844c-0.239 0.349-0.275 0.831-0.060 1.241 0.275 0.53 0.861 0.916 1.458 0.964 0.036 0.060 0.072 0.132 0.12 0.193 0.347 0.47 0.932 0.771 1.518 0.783 0.048 0.084 0.108 0.181 0.179 0.265 0.347 0.422 0.884 0.687 1.411 0.723 0.047 0.108 0.119 0.205 0.191 0.301 0.323 0.397 0.825 0.638 1.327 0.638 0.442 0 0.825-0.193 1.064-0.542 0.131-0.193 0.801-1.374 0.801-1.374 0.227 0.096 0.359 0.157 0.37 0.157 0.634 0.253 1.291-0.084 1.554-0.771 0.048-0.121 0.072-0.241 0.096-0.362 0.67 0.253 1.446-0.108 1.709-0.771 0.084-0.217 0.107-0.446 0.084-0.663 0.119-0.024 4.638-1.301 4.638-1.301 0.191-0.048 0.311-0.241 0.275-0.434l-1.1-6.928c-0.012-0.108-0.084-0.205-0.168-0.265-0.057-0.041-0.127-0.065-0.204-0.065-0.038 0-0.075 0.006-0.11 0.017l0.003-0.001-3.837 0.988c-0.179-0.048-0.693-0.301-2.068-1.132-1.16-0.699-1.482-0.88-1.817-0.88-0.406 0-1.255 0.446-1.841 0.795-0.095-0.060-0.215-0.084-0.347-0.072zM25.004 17.795l0.873 5.47-1.661 0.47c0.164-0.176 0.298-0.384 0.39-0.613l0.005-0.013c0.227-0.65 0.036-1.313-0.49-1.735-0.012-0.012-2.928-1.663-5.211-3.084-0.058-0.036-0.128-0.059-0.203-0.060h-0l-0.705 0.024c-0.048 0-0.108 0.012-0.156 0.036-0.813 0.385-0.896 0.698-0.92 0.807-0.072 0.277-0.418 1.554-0.598 2.217-0.406 0.072-1.207-0.301-1.338-0.578 0.048-0.217 0.108-0.518 0.167-0.843 0.131-0.699 0.311-1.578 0.383-1.868 0.167-0.325 1.9-1.361 2.211-1.409 0.156 0.036 0.777 0.409 1.279 0.711 1.303 0.783 2.199 1.301 2.749 1.301 0.227-0.012 2.39-0.626 3.227-0.831zM16.506 28.663c-0.156 0-0.347-0.096-0.454-0.229-0.084-0.109-0.108-0.229-0.084-0.361 0.036-0.145-0.024-0.301-0.143-0.398-0.064-0.044-0.142-0.070-0.227-0.072h-0c-0.060 0-0.132 0.012-0.191 0.048-0.287 0.157-0.741 0.012-0.98-0.265-0.072-0.085-0.143-0.205-0.119-0.35 0.024-0.157-0.036-0.313-0.179-0.398-0.056-0.035-0.125-0.056-0.198-0.056-0.088 0-0.169 0.030-0.233 0.081l0.001-0.001c-0.084 0.060-0.191 0.072-0.263 0.072-0.239 0-0.526-0.132-0.657-0.325-0.108-0.157-0.072-0.265-0.072-0.301 0.010-0.034 0.016-0.072 0.016-0.112 0-0.131-0.062-0.247-0.158-0.32l-0.001-0.001c-0.143-0.097-0.323-0.097-0.454 0.012-0.215 0.157-0.526 0.060-0.729-0.157-0.096-0.096-0.107-0.169-0.107-0.181l0.646-0.964c0.095-0.157 0.359-0.012 0.514 0.181 0.084 0.096 0.108 0.169 0.096 0.205-0.024 0.181 0.084 0.361 0.263 0.422 0.168 0.061 0.371-0.012 0.454-0.169 0.251-0.422 0.466-0.65 0.61-0.687 0.251-0.036 0.466 0.048 0.633 0.229 0.119 0.132 0.167 0.265 0.167 0.337-0.012 0.181 0.108 0.337 0.275 0.385s0.347-0.024 0.442-0.169c0.311-0.518 0.944-0.253 1.171 0.084 0.060 0.096 0.096 0.193 0.072 0.253-0.072 0.169-0.012 0.361 0.131 0.47 0.156 0.109 0.347 0.096 0.49-0.036 0.156-0.132 0.526 0 0.658 0.229 0.072 0.132 0.060 0.265-0.024 0.422-0.131 0.205-1.076 1.892-1.231 2.109-0.024 0.012-0.096 0.012-0.132 0.012z"></path>
<path fill="#aad4c8" d="M17.534 5.807c-0.287-0.253-0.717-0.253-1.016 0l-11.666 10.145c-0.162 0.143-0.263 0.352-0.263 0.584 0 0.002 0 0.005 0 0.007v-0 14.675c0 0.001 0 0.003 0 0.005 0 0.429 0.348 0.778 0.777 0.778h23.331c0.429-0.001 0.777-0.349 0.777-0.779 0-0.002 0-0.003 0-0.005v0-14.675c0-0.229-0.096-0.446-0.263-0.59l-11.678-10.145zM27.921 30.434h-21.777v-13.53l10.889-9.47 10.889 9.47v13.53z"></path>
<path fill="#aad4c8" d="M33.527 13.795l-15.491-13.422c-0.268-0.236-0.622-0.379-1.010-0.379s-0.742 0.144-1.012 0.381l0.002-0.002-15.478 13.422c-0.645 0.566-0.717 1.554-0.167 2.205 0.562 0.65 1.542 0.723 2.187 0.169l14.474-12.554 14.474 12.542c0.264 0.232 0.612 0.374 0.994 0.374 0.004 0 0.007 0 0.011-0h-0.001c0.43 0 0.873-0.181 1.171-0.542 0.562-0.639 0.49-1.627-0.155-2.193z"></path>
</svg>
